HIERARCHY
ROOT Hips
{
	OFFSET 0.000000 0.000000 0.000000
	CHANNELS 6 Xposition Yposition Zposition Zrotation Yrotation Xrotation 
	JOINT LHipJoint
	{
		OFFSET 0.000000 0.000000 0.000000
		CHANNELS 3 Zrotation Yrotation Xrotation
		JOINT LeftUpLeg
		{
			OFFSET 1.363060 -1.794630 0.839290
			CHANNELS 3 Zrotation Yrotation Xrotation
			JOINT LeftLeg
			{
				OFFSET 2.448110 -6.726130 0.000000
				CHANNELS 3 Zrotation Yrotation Xrotation
				JOINT LeftFoot
				{
					OFFSET 2.562200 -7.039590 0.000000
					CHANNELS 3 Zrotation Yrotation Xrotation
					JOINT LeftToeBase
					{
						OFFSET 0.157640 -0.433110 2.322550
						CHANNELS 3 Zrotation Yrotation Xrotation
						End Site
						{
							OFFSET 0.000000 0.000000 0.000000
						}
					}
				}
			}
		}
	}
	JOINT RHipJoint
	{
		OFFSET 0.000000 0.000000 0.000000
		CHANNELS 3 Zrotation Yrotation Xrotation
		JOINT RightUpLeg
		{
			OFFSET -1.305520 -1.794630 0.839290
			CHANNELS 3 Zrotation Yrotation Xrotation
			JOINT RightLeg
			{
				OFFSET -2.542530 -6.985550 0.000000
				CHANNELS 3 Zrotation Yrotation Xrotation
				JOINT RightFoot
				{
					OFFSET -2.568260 -7.056230 0.000000
					CHANNELS 3 Zrotation Yrotation Xrotation
					JOINT RightToeBase
					{
						OFFSET -0.164730 -0.452590 2.363150
						CHANNELS 3 Zrotation Yrotation Xrotation
						End Site
						{
							OFFSET 0.000000 0.000000 0.000000
						}
					}
				}
			}
		}
	}
	JOINT LowerBack
	{
		OFFSET 0.000000 0.000000 0.000000
		CHANNELS 3 Zrotation Yrotation Xrotation
		JOINT Spine
		{
			OFFSET 0.028270 2.035590 -0.193380
			CHANNELS 3 Zrotation Yrotation Xrotation
			JOINT Spine1
			{
				OFFSET 0.056720 2.048850 -0.042750
				CHANNELS 3 Zrotation Yrotation Xrotation
				JOINT Neck
				{
					OFFSET 0.000000 0.000000 0.000000
					CHANNELS 3 Zrotation Yrotation Xrotation
					JOINT Neck1
					{
						OFFSET -0.054170 1.746240 0.172020
						CHANNELS 3 Zrotation Yrotation Xrotation
						JOINT Head
						{
							OFFSET 0.104070 1.761360 -0.123970
							CHANNELS 3 Zrotation Yrotation Xrotation
							End Site
							{
								OFFSET 0.000000 0.000000 0.000000
							}
						}
					}
				}
				JOINT LeftShoulder
				{
					OFFSET 0.000000 0.000000 0.000000
					CHANNELS 3 Zrotation Yrotation Xrotation
					JOINT LeftArm
					{
						OFFSET 3.362410 1.200890 -0.311210
						CHANNELS 3 Zrotation Yrotation Xrotation
						JOINT LeftForeArm
						{
							OFFSET 4.983000 -0.000000 -0.000000
							CHANNELS 3 Zrotation Yrotation Xrotation
							JOINT LeftHand
							{
								OFFSET 3.483560 -0.000000 -0.000000
								CHANNELS 3 Zrotation Yrotation Xrotation
								JOINT LeftFingerBase
								{
									OFFSET 0.000000 0.000000 0.000000
									CHANNELS 3 Zrotation Yrotation Xrotation
									JOINT LeftHandIndex1
									{
										OFFSET 0.715260 -0.000000 -0.000000
										CHANNELS 3 Zrotation Yrotation Xrotation
										End Site
										{
											OFFSET 0.000000 0.000000 0.000000
										}
									}
								}
								JOINT LThumb
								{
									OFFSET 0.000000 0.000000 0.000000
									CHANNELS 3 Zrotation Yrotation Xrotation
									End Site
									{
										OFFSET 0.000000 0.000000 0.000000
									}
								}
							}
						}
					}
				}
				JOINT RightShoulder
				{
					OFFSET 0.000000 0.000000 0.000000
					CHANNELS 3 Zrotation Yrotation Xrotation
					JOINT RightArm
					{
						OFFSET -3.136600 1.374050 -0.404650
						CHANNELS 3 Zrotation Yrotation Xrotation
						JOINT RightForeArm
						{
							OFFSET -5.241900 -0.000000 -0.000000
							CHANNELS 3 Zrotation Yrotation Xrotation
							JOINT RightHand
							{
								OFFSET -3.444170 -0.000000 -0.000000
								CHANNELS 3 Zrotation Yrotation Xrotation
								JOINT RightFingerBase
								{
									OFFSET 0.000000 0.000000 0.000000
									CHANNELS 3 Zrotation Yrotation Xrotation
									JOINT RightHandIndex1
									{
										OFFSET -0.622530 -0.000000 -0.000000
										CHANNELS 3 Zrotation Yrotation Xrotation
										End Site
										{
											OFFSET 0.000000 0.000000 0.000000
										}
									}
								}
								JOINT RThumb
								{
									OFFSET 0.000000 0.000000 0.000000
									CHANNELS 3 Zrotation Yrotation Xrotation
									End Site
									{
										OFFSET 0.000000 0.000000 0.000000
									}
								}
							}
						}
					}
				}
			}
		}
	}
}
MOTION
Frames: 11
Frame Time: 0.008333
18.367816 18.817056 33.135195 -0.225333 1.776785 10.476840 -16.336824 2.650739 3.092039 3.296156 0.970468 -26.544670 -15.153532 -25.966573 41.816244 -19.117543 33.042815 -13.942250 0.140121 -1.534215 2.369558 14.161707 -2.895262 2.997350 -3.720855 -0.331324 -26.781761 5.217286 10.484927 34.384236 22.046136 -23.399132 -13.879508 -0.049232 -0.165849 0.072755 1.723676 -0.687139 6.871309 0.786614 -0.594358 -3.850604 -2.087591 -0.634233 0.106597 -4.353631 -3.089625 -5.022081 -2.789673 -2.065151 35.003203 -10.973018 1.042619 19.374867 -9.686740 -10.353977 2.388805 -72.561282 -17.379013 53.137674 5.241950 2.197146 -12.224955 -0.001190 1.827261 -12.251815 0.311889 -0.715940 0.000000 0.000000 0.000000 0.000000 0.000000 0.000000 0.000000 11.898652 12.678511 4.580847 70.261019 17.743637 43.359896 -6.460160 4.227570 -6.036813 -5.837859 -0.131360 -5.420657 1.900689 0.253966 0.000000 0.000000 0.000000 0.000000 0.000000 0.000000 0.000000
18.363704 18.826342 33.130617 -0.229981 1.760831 10.623236 -16.384461 2.637958 3.129460 3.395476 0.903002 -26.435188 -14.376909 -25.576262 40.743527 -19.244455 32.571014 -13.285308 0.118506 -1.547010 2.227674 14.187815 -2.950033 3.018779 -3.538044 -0.686168 -26.671086 3.151080 8.139311 32.048948 21.628674 -20.830612 -10.854021 -0.053355 -0.180048 0.133393 1.726252 -0.686364 6.735090 0.788199 -0.590624 -3.851773 -2.004658 -0.634726 0.061969 -4.358874 -3.103975 -4.949328 -2.866798 -2.077427 35.071984 -11.225826 0.960599 18.234403 -9.676330 -10.407150 2.236513 -72.694048 -17.208803 53.193926 5.549476 0.807157 -11.764377 -0.343395 0.759126 -11.669846 0.495973 -0.417957 0.000000 0.000000 0.000000 0.000000 0.000000 0.000000 0.000000 11.976894 12.735733 4.587142 70.398422 17.707676 42.815030 -6.335799 4.663872 -3.823005 -6.160639 0.204889 -3.232879 2.008616 0.207103 -0.000000 0.000000 0.000000 0.000000 0.000000 0.000000 0.000000
18.358760 18.833158 33.126316 -0.268555 1.770109 10.739074 -16.476425 2.727715 3.119673 3.261205 1.245611 -26.387690 -12.764856 -24.916131 39.113944 -19.274920 31.226607 -11.658798 0.102261 -1.480567 2.043512 14.239317 -3.016136 3.067940 -3.416539 -0.911543 -26.510142 2.068695 6.872483 30.447311 21.299721 -19.551334 -8.885600 -0.030256 -0.101738 0.013260 1.726428 -0.699867 6.650925 0.792115 -0.600857 -3.867319 -1.916240 -0.651886 0.021822 -4.350931 -3.126153 -4.909329 -2.793826 -2.004288 34.579587 -11.294636 1.103618 18.325467 -9.640063 -10.425633 2.141875 -72.679765 -17.167534 52.343273 5.528305 -0.888267 -10.658612 -0.862030 -0.058117 -10.398458 0.702484 -0.221370 0.000000 0.000000 0.000000 0.000000 0.000000 0.000000 0.000000 12.021520 12.743948 4.549680 70.551576 17.704584 42.412011 -6.236131 4.991022 -1.594626 -6.070504 0.303120 -1.005548 1.958949 0.247375 -0.000000 0.000000 0.000000 0.000000 0.000000 0.000000 0.000000
18.352117 18.837582 33.119297 -0.282051 1.738463 10.868468 -16.546904 2.745999 3.137182 3.315771 1.193967 -26.258051 -11.586013 -24.140912 37.725490 -19.358445 30.398549 -10.753276 -0.060305 -1.223943 0.641240 14.303046 -3.044712 3.081097 -3.196343 -1.170033 -26.378248 -0.279865 3.601793 27.814911 20.112262 -16.474549 -4.882481 -0.034132 -0.113220 -0.168955 1.717214 -0.778098 6.606111 0.803105 -0.682861 -3.871289 -1.779136 -0.744000 0.001500 -4.416360 -3.105006 -4.964121 -2.875276 -1.796436 34.579138 -11.220550 1.138499 17.286279 -9.600905 -10.207420 1.754887 -72.894297 -16.908351 52.397415 6.136934 -2.307140 -10.140117 -0.570917 -0.981208 -9.679952 0.637207 0.051858 0.000000 0.000000 0.000000 0.000000 0.000000 0.000000 0.000000 12.182061 12.387600 4.838808 70.793317 18.374152 42.908166 -5.996489 5.104810 -0.268189 -5.783913 0.557381 0.273593 1.853801 0.185755 -0.000000 0.000000 0.000000 0.000000 0.000000 0.000000 0.000000
18.346662 18.843130 33.111706 -0.253347 1.735349 10.868403 -16.640835 2.812799 3.147894 3.386321 1.032504 -25.988880 -10.458182 -23.372389 36.379726 -19.368379 29.703637 -9.586580 -0.102156 -1.299871 0.413811 14.395034 -3.116538 3.148404 -3.086710 -1.266592 -26.093002 -3.027760 -1.126514 24.691021 18.152225 -12.214196 0.147643 -0.003866 -0.006138 -0.579250 1.650491 -0.791994 6.643220 0.805174 -0.685492 -3.881359 -1.669538 -0.756637 -0.018511 -4.445411 -3.123411 -4.935359 -2.801011 -1.768034 34.078880 -11.237641 1.230265 17.424340 -9.533145 -10.228855 1.614238 -73.028086 -16.693160 52.029069 6.614185 -4.094240 -9.345134 -1.127160 -1.906050 -8.596362 0.875444 0.282634 0.000000 0.000000 0.000000 0.000000 0.000000 0.000000 0.000000 12.254148 12.385305 4.866526 70.884631 18.466535 41.964389 -5.820640 5.400879 1.638437 -6.391532 0.709086 2.135610 2.083216 0.204732 -0.000000 0.000000 0.000000 0.000000 0.000000 0.000000 0.000000
18.337892 18.843955 33.100483 -0.242902 1.685276 10.943036 -16.659445 2.740026 3.182163 3.752970 0.340522 -25.588023 -10.094812 -22.834609 35.529436 -19.595225 29.939487 -9.449882 -0.099753 -1.279964 0.412887 14.467445 -3.107017 3.197935 -3.087894 -1.068339 -25.672776 -4.094577 -2.992816 23.027897 17.450293 -10.839132 2.131541 -0.004628 -0.007863 -0.652925 1.606042 -0.803160 6.619680 0.806550 -0.693426 -3.877336 -1.575773 -0.772251 -0.002644 -4.475782 -3.120133 -4.909656 -2.766318 -1.577864 34.087503 -11.187158 1.334194 16.499650 -9.556684 -10.283449 1.500740 -73.085971 -16.717201 51.643227 6.907379 -5.301256 -8.311497 -0.933464 -2.488911 -7.365656 0.805683 0.453539 0.000000 0.000000 0.000000 0.000000 0.000000 0.000000 0.000000 12.402688 12.398191 4.943971 71.005621 18.653514 41.832831 -5.846400 5.493851 2.751025 -6.705605 0.828547 3.229244 2.194593 0.206327 -0.000000 0.000000 0.000000 0.000000 0.000000 0.000000 0.000000
18.333535 18.840321 33.087194 -0.309864 1.698182 11.114046 -16.715910 2.691022 3.132100 3.592665 0.758131 -25.730829 -9.534118 -22.974335 35.127451 -19.729498 29.511018 -9.063837 -0.079750 -1.105525 0.397574 14.461335 -3.001984 3.288389 -3.105329 -0.725759 -25.399515 -5.610888 -6.913649 20.782281 16.190825 -7.507652 5.367843 -0.019482 -0.061741 -0.367458 1.662147 -0.815549 6.537035 0.811473 -0.708877 -3.881775 -1.480437 -0.794242 0.002427 -4.475996 -3.127623 -4.896697 -2.755879 -1.503247 33.902801 -11.209799 1.373903 16.007772 -9.534373 -10.324120 1.387424 -73.016250 -16.815293 50.588035 6.911077 -6.906601 -7.223869 -0.426267 -2.971898 -6.085075 0.579998 0.563070 0.000000 0.000000 0.000000 0.000000 0.000000 0.000000 0.000000 12.475403 12.401869 5.008976 71.099588 18.840152 41.403167 -5.748739 5.618122 3.791368 -6.993442 0.819576 4.249378 2.299617 0.257086 -0.000000 0.000000 0.000000 0.000000 0.000000 0.000000 0.000000
18.319945 18.841030 33.077664 -0.301172 1.682270 11.213485 -16.710023 2.676590 3.122029 3.700480 0.515962 -25.563332 -9.013878 -22.565979 34.328271 -19.825116 29.409378 -8.432079 -0.103105 -1.208420 0.324974 14.537493 -2.941150 3.402350 -3.333627 -0.153652 -24.999489 -6.876350 -11.089921 18.559595 14.037460 -4.186515 8.651984 -0.010366 -0.026603 -0.735932 1.554025 -0.822832 6.533991 0.812949 -0.707944 -3.891133 -1.353199 -0.801287 -0.038074 -4.524665 -3.088329 -4.887167 -2.517017 -1.212697 33.581340 -10.970045 1.703834 16.035129 -9.305373 -10.276078 1.213586 -73.295626 -16.768756 50.265808 7.351979 -8.357306 -6.624892 -0.086047 -3.659714 -5.222163 0.449968 0.741150 0.000000 0.000000 0.000000 0.000000 0.000000 0.000000 0.000000 12.423838 12.284493 5.062914 71.382715 19.047874 41.005684 -5.655538 5.712349 4.397964 -7.847507 0.768553 4.822234 2.621943 0.332299 -0.000000 0.000000 0.000000 0.000000 0.000000 0.000000 0.000000
18.309521 18.841339 33.066461 -0.321459 1.662442 11.200371 -16.726603 2.692808 3.129005 3.824720 0.301683 -25.327129 -8.592484 -22.232530 33.727270 -19.935983 29.208045 -8.239419 -0.077519 -1.059052 0.371894 14.592103 -2.934280 3.469090 -3.615362 0.547050 -24.492938 -6.894180 -12.263999 17.680473 13.689917 -3.952941 9.236471 -0.022952 -0.070229 -0.702035 1.473115 -0.819212 6.580446 0.813326 -0.698896 -3.893493 -1.225952 -0.800462 -0.026737 -4.513725 -3.069087 -4.874503 -2.470544 -1.343317 33.337137 -11.247934 1.657854 15.932108 -9.235911 -10.334310 1.154127 -73.282432 -16.848603 48.813154 7.093086 -9.778774 -5.209199 0.119770 -3.751744 -3.671491 0.327900 0.703380 0.000000 0.000000 0.000000 0.000000 0.000000 0.000000 0.000000 12.472830 12.300270 5.082920 71.581249 19.112996 40.940425 -5.558608 5.677588 4.559133 -7.488705 0.847851 4.964801 2.493874 0.287405 -0.000000 0.000000 0.000000 0.000000 0.000000 0.000000 0.000000
18.301851 18.842553 33.057506 -0.326337 1.612701 11.263399 -16.742916 2.680107 3.116942 3.876335 0.178899 -25.248074 -7.975213 -21.638092 33.030412 -19.943814 28.722800 -7.645811 -0.074483 -1.040543 0.376709 14.644533 -2.901820 3.598562 -3.861641 1.239140 -24.016176 -7.328209 -14.467441 16.113940 12.990467 -2.649555 10.858980 -0.023313 -0.071040 -0.744728 1.435752 -0.798187 6.535358 0.812209 -0.675984 -3.894017 -1.151917 -0.781412 -0.055449 -4.520147 -3.046846 -4.838742 -2.415858 -1.276366 33.353685 -11.247183 1.706219 15.557849 -9.168512 -10.325506 1.045530 -73.450404 -16.777561 48.491794 7.605496 -10.899886 -4.811159 0.898498 -3.795904 -3.034257 0.040744 0.637705 0.000000 0.000000 0.000000 0.000000 0.000000 0.000000 0.000000 12.487879 12.273170 5.098516 71.881040 19.116051 41.122031 -5.693869 5.588834 4.179930 -7.642121 0.977861 4.575586 2.553818 0.222242 -0.000000 0.000000 0.000000 0.000000 0.000000 0.000000 0.000000
18.294350 18.842853 33.045963 -0.321123 1.544840 11.300149 -16.764389 2.674329 3.092889 3.889217 0.113584 -25.174904 -6.962144 -20.476780 31.913877 -19.771028 27.700836 -6.520672 -0.073421 -1.014349 0.360941 14.664053 -2.866276 3.673928 -4.151943 1.911014 -23.636557 -7.392803 -15.944582 15.202633 12.597563 -1.999393 11.676302 -0.015669 -0.043742 -0.837106 1.375570 -0.774282 6.539847 0.810350 -0.647756 -3.893377 -1.066203 -0.757398 -0.069890 -4.544184 -3.039193 -4.823729 -2.376277 -1.213730 33.315645 -11.160502 1.748524 15.401691 -9.067880 -10.291052 0.926110 -73.680227 -16.810756 48.434462 7.953730 -11.798589 -4.510408 1.456692 -4.015830 -2.550498 -0.167912 0.652950 0.000000 0.000000 0.000000 0.000000 0.000000 0.000000 0.000000 12.499519 12.241669 5.145198 72.092608 19.203688 41.228204 -5.530784 5.526317 3.705019 -6.914593 1.218179 4.067518 2.300170 0.080437 -0.000000 0.000000 0.000000 0.000000 0.000000 0.000000 0.000000
